Coordinates
version=1
nRows=29
nColumns=24
inDegrees=yes

Units are S.I. units (second, meters, Newtons, ...)
Angles are in degrees.

endheader
time	pelvis_tilt	pelvis_list	pelvis_rotation	pelvis_tx	pelvis_ty	pelvis_tz	hip_flexion_r	hip_adduction_r	hip_rotation_r	knee_angle_r	ankle_angle_r	subtalar_angle_r	mtp_angle_r	hip_flexion_l	hip_adduction_l	hip_rotation_l	knee_angle_l	ankle_angle_l	subtalar_angle_l	mtp_angle_l	lumbar_extension	lumbar_bending	lumbar_rotation
      5.55000000	     38.53091863	      3.51534222	     -2.05469270	      0.68824715	      1.06909116	     -0.33090988	     35.15185409	    -11.82605598	      8.02297746	    -74.95801720	    -24.68611352	      0.00000000	      0.00000000	     28.04423635	    -13.55817211	     -6.62788249	    -69.46922775	    -13.76411750	      0.00000000	      0.00000000	      0.00000000	      0.00000000	      0.00000000
      5.56000000	     38.52618051	      3.51759390	     -2.05689988	      0.68825903	      1.06906915	     -0.33088544	     35.15878441	    -11.84596958	      8.07073544	    -74.96950508	    -24.70814654	      0.00000000	      0.00000000	     28.05208212	    -13.55821490	     -6.62886646	    -69.46807858	    -13.76541783	      0.00000000	      0.00000000	      0.00000000	      0.00000000	      0.00000000
      5.57000000	     38.51838699	      3.51860483	     -2.06005576	      0.68827292	      1.06904647	     -0.33085592	     35.16709443	    -11.86521778	      8.12342264	    -74.98286823	    -24.73209515	      0.00000000	      0.00000000	     28.06352046	    -13.56099291	     -6.63145503	    -69.46785439	    -13.76569575	      0.00000000	      0.00000000	      0.00000000	      0.00000000	      0.00000000
      5.58000000	     38.50649753	      3.51771733	     -2.06565255	      0.68828432	      1.06901918	     -0.33081811	     35.17927914	    -11.88122216	      8.18266608	    -74.99781208	    -24.75547306	      0.00000000	      0.00000000	     28.08011144	    -13.56777564	     -6.63658464	    -69.46846619	    -13.76486244	      0.00000000	      0.00000000	      0.00000000	      0.00000000	      0.00000000
      5.59000000	     38.48924159	      3.51458005	     -2.07546124	      0.68828615	      1.06898465	     -0.33077770	     35.19800750	    -11.89098597	      8.24976381	    -75.01356645	    -24.77606575	      0.00000000	      0.00000000	     28.10250287	    -13.57921188	     -6.64531986	    -69.47007897	    -13.76285369	      0.00000000	      0.00000000	      0.00000000	      0.00000000	      0.00000000
      5.60000000	     38.46505037	      3.50880500	     -2.09110494	      0.68828749	      1.06894793	     -0.33074651	     35.22471698	    -11.89279939	      8.32523264	    -75.02967553	    -24.79215984	      0.00000000	      0.00000000	     28.13033079	    -13.59544361	     -6.65853071	    -69.47284559	    -13.75966836	      0.00000000	      0.00000000	      0.00000000	      0.00000000	      0.00000000
      5.61000000	     38.43329005	      3.50013215	     -2.11327005	      0.68831471	      1.06891744	     -0.33073154	     35.25923279	    -11.88726556	      8.40839748	    -75.04640863	    -24.80274228	      0.00000000	      0.00000000	     28.16243610	    -13.61621442	     -6.67640906	    -69.47658393	    -13.75545709	      0.00000000	      0.00000000	      0.00000000	      0.00000000	      0.00000000
      5.62000000	     38.39573874	      3.48906998	     -2.14083521	      0.68837632	      1.06889677	     -0.33072634	     35.30009976	    -11.87700042	      8.49723594	    -75.06449597	    -24.80751801	      0.00000000	      0.00000000	     28.19721497	    -13.64076520	     -6.69812596	    -69.48061573	    -13.75059349	      0.00000000	      0.00000000	      0.00000000	      0.00000000	      0.00000000
      5.63000000	     38.35647062	      3.47719784	     -2.17070170	      0.68843517	      1.06887860	     -0.33071622	     35.34475868	    -11.86551096	      8.58862555	    -75.08455894	    -24.80670177	      0.00000000	      0.00000000	     28.23268194	    -13.66751264	     -6.72189641	    -69.48398917	    -13.74564112	      0.00000000	      0.00000000	      0.00000000	      0.00000000	      0.00000000
      5.64000000	     38.31981864	      3.46638809	     -2.19896443	      0.68845276	      1.06885346	     -0.33069513	     35.38925661	    -11.85636281	      8.67907956	    -75.10685656	    -24.80068417	      0.00000000	      0.00000000	     28.26626952	    -13.69386509	     -6.74535925	    -69.48603961	    -13.74122950	      0.00000000	      0.00000000	      0.00000000	      0.00000000	      0.00000000
      5.65000000	     38.28849501	      3.45767622	     -2.22252577	      0.68845426	      1.06882833	     -0.33067469	     35.42833393	    -11.85293377	      8.76574154	    -75.13145949	    -24.78975109	      0.00000000	      0.00000000	     28.29488912	    -13.71662931	     -6.76594675	    -69.48688907	    -13.73792351	      0.00000000	      0.00000000	      0.00000000	      0.00000000	      0.00000000
      5.66000000	     38.26407013	      3.45133695	     -2.23943591	      0.68848810	      1.06881784	     -0.33067012	     35.45687242	    -11.85794767	      8.84697480	    -75.15834534	    -24.77404373	      0.00000000	      0.00000000	     28.31559903	    -13.73295475	     -6.78115476	    -69.48737188	    -13.73613302	      0.00000000	      0.00000000	      0.00000000	      0.00000000	      0.00000000
      5.67000000	     38.24913614	      3.44779718	     -2.24827916	      0.68854616	      1.06882125	     -0.33068108	     35.47215997	    -11.87257203	      8.92223145	    -75.18721247	    -24.75385397	      0.00000000	      0.00000000	     28.32664673	    -13.74117732	     -6.78897212	    -69.48831657	    -13.73605126	      0.00000000	      0.00000000	      0.00000000	      0.00000000	      0.00000000
      5.68000000	     38.24760272	      3.44776688	     -2.24833627	      0.68857878	      1.06882227	     -0.33069355	     35.47487938	    -11.89601946	      8.99153421	    -75.21756322	    -24.73010848	      0.00000000	      0.00000000	     28.32787419	    -13.74110697	     -6.78852106	    -69.48993969	    -13.73761104	      0.00000000	      0.00000000	      0.00000000	      0.00000000	      0.00000000
      5.69000000	     38.26153223	      3.45147862	     -2.24067431	      0.68854740	      1.06880370	     -0.33069318	     35.46766414	    -11.92616858	      9.05500725	    -75.24935780	    -24.70466482	      0.00000000	      0.00000000	     28.31997844	    -13.73380042	     -6.78048921	    -69.49202924	    -13.74047991	      0.00000000	      0.00000000	      0.00000000	      0.00000000	      0.00000000
      5.70000000	     38.28801358	      3.45814644	     -2.22869932	      0.68845526	      1.06876686	     -0.33067775	     35.45285503	    -11.96053449	      9.11281126	    -75.28339297	    -24.68003599	      0.00000000	      0.00000000	     28.30368869	    -13.72109180	     -6.76692322	    -69.49448314	    -13.74411520	      0.00000000	      0.00000000	      0.00000000	      0.00000000	      0.00000000
      5.71000000	     38.32026206	      3.46612923	     -2.21683420	      0.68836403	      1.06874185	     -0.33066216	     35.43184393	    -11.99688691	      9.16574669	    -75.32043668	    -24.65847018	      0.00000000	      0.00000000	     28.28000771	    -13.70508730	     -6.75042599	    -69.49737964	    -13.74788371	      0.00000000	      0.00000000	      0.00000000	      0.00000000	      0.00000000
      5.72000000	     38.35212146	      3.47393803	     -2.20773216	      0.68834269	      1.06875529	     -0.33066505	     35.40600878	    -12.03320540	      9.21581774	    -75.35976923	    -24.64087436	      0.00000000	      0.00000000	     28.25111136	    -13.68767121	     -6.73325669	    -69.50057826	    -13.75122576	      0.00000000	      0.00000000	      0.00000000	      0.00000000	      0.00000000
      5.73000000	     38.38144303	      3.48143581	     -2.20059892	      0.68837185	      1.06878847	     -0.33068471	     35.37751572	    -12.06736689	      9.26568006	    -75.39880286	    -24.62631488	      0.00000000	      0.00000000	     28.22061315	    -13.67014034	     -6.71684043	    -69.50349596	    -13.75380762	      0.00000000	      0.00000000	      0.00000000	      0.00000000	      0.00000000
      5.74000000	     38.40932980	      3.48951973	     -2.19273613	      0.68836167	      1.06879870	     -0.33069929	     35.34901448	    -12.09757649	      9.31731889	    -75.43431611	    -24.61239680	      0.00000000	      0.00000000	     28.19251318	    -13.65317994	     -6.70181802	    -69.50549948	    -13.75560025	      0.00000000	      0.00000000	      0.00000000	      0.00000000	      0.00000000
      5.75000000	     38.43650447	      3.49857537	     -2.18280742	      0.68827907	      1.06877500	     -0.33069781	     35.32264194	    -12.12334798	      9.37099735	    -75.46426123	    -24.59627413	      0.00000000	      0.00000000	     28.16942920	    -13.63724726	     -6.68839123	    -69.50666005	    -13.75685803	      0.00000000	      0.00000000	      0.00000000	      0.00000000	      0.00000000
      5.76000000	     38.46114459	      3.50770304	     -2.17221098	      0.68818355	      1.06874371	     -0.33069104	     35.29962291	    -12.14578071	      9.42502424	    -75.48868406	    -24.57581859	      0.00000000	      0.00000000	     28.15164621	    -13.62303561	     -6.67664415	    -69.50803284	    -13.75800571	      0.00000000	      0.00000000	      0.00000000	      0.00000000	      0.00000000
      5.77000000	     38.48035638	      3.51548189	     -2.16363018	      0.68813498	      1.06872804	     -0.33068951	     35.28082419	    -12.16652518	      9.47629300	    -75.50927767	    -24.55053227	      0.00000000	      0.00000000	     28.13789926	    -13.61150896	     -6.66668415	    -69.51098415	    -13.75946799	      0.00000000	      0.00000000	      0.00000000	      0.00000000	      0.00000000
      5.78000000	     38.49283547	      3.52126320	     -2.15893387	      0.68813191	      1.06872628	     -0.33069310	     35.26715580	    -12.18624914	      9.52128278	    -75.52828687	    -24.52191754	      0.00000000	      0.00000000	     28.12700735	    -13.60346733	     -6.65861052	    -69.51614945	    -13.76150220	      0.00000000	      0.00000000	      0.00000000	      0.00000000	      0.00000000
      5.79000000	     38.49964883	      3.52534028	     -2.15816335	      0.68814183	      1.06872734	     -0.33069677	     35.25921254	    -12.20425007	      9.55739899	    -75.54754415	    -24.49310654	      0.00000000	      0.00000000	     28.11871904	    -13.59909966	     -6.65240206	    -69.52302372	    -13.76410182	      0.00000000	      0.00000000	      0.00000000	      0.00000000	      0.00000000
      5.80000000	     38.50287892	      3.52806119	     -2.15981612	      0.68814554	      1.06872742	     -0.33069388	     35.25668075	    -12.21946711	      9.58410638	    -75.56792114	    -24.46781682	      0.00000000	      0.00000000	     28.11324761	    -13.59792773	     -6.64781912	    -69.53048493	    -13.76699512	      0.00000000	      0.00000000	      0.00000000	      0.00000000	      0.00000000
      5.81000000	     38.50405833	      3.52950485	     -2.16193356	      0.68814334	      1.06872774	     -0.33068378	     35.25819052	    -12.23143367	      9.60293144	    -75.58922741	    -24.44908887	      0.00000000	      0.00000000	     28.11048777	    -13.59915278	     -6.64441817	    -69.53759296	    -13.76970876	      0.00000000	      0.00000000	      0.00000000	      0.00000000	      0.00000000
      5.82000000	     38.50392836	      3.52986038	     -2.16323992	      0.68814103	      1.06872786	     -0.33067376	     35.26185831	    -12.24040931	      9.61629087	    -75.61045287	    -24.43836641	      0.00000000	      0.00000000	     28.10988386	    -13.60201405	     -6.64176086	    -69.54393395	    -13.77168527	      0.00000000	      0.00000000	      0.00000000	      0.00000000	      0.00000000
      5.83000000	     38.50302457	      3.52958897	     -2.16364065	      0.68814107	      1.06872539	     -0.33066761	     35.26614970	    -12.24703199	      9.62607862	    -75.63021366	    -24.43524613	      0.00000000	      0.00000000	     28.11065800	    -13.60590367	     -6.63969037	    -69.54953742	    -13.77246592	      0.00000000	      0.00000000	      0.00000000	      0.00000000	      0.00000000
